# xmcd
#
# Track frame offsets: 
#        182
#        13002
#        26382
#        39335
#        50472
#        63772
#        76137
#        89567
#        100127
#        110952
#        122455
#        134062
#        145032
#        158607
#        170307
#        184067
#        196235
#        209350
#        222635
#        239660
#        255135
#        267300
#
# Disc length: 3791 seconds
#
# Revision: 10
# Processed by: cddbd v1.5.2PL0 Copyright (c) Steve Scherf et al.
# Submitted via: ExactAudioCopy v0.99pb4
#
DISCID=310ecd16
DTITLE=Various Artist - Beg Scream And Shout - Scream 1
DYEAR=1997
DGENRE=Soul
TTITLE0=Shorty Long - Function At The Junction
TTITLE1=King Curtis - Memphis Soul Stew
TTITLE2=Dobie Gray - The In Crowd
TTITLE3=Starlets (The Blue-Belles) - I Sold My Heart To The Junkman
TTITLE4=Barbara Acklin - Love Makes A Woman
TTITLE5=O'Jays - Lipstick Traces (On A Cigarette)
TTITLE6=Bettye Swann - Make Me Yours
TTITLE7=Clifford Curry - She Shot A Hole In My Soul
TTITLE8=Betty Everett - You're No Good
TTITLE9=Ikettes - I'm Blue
TTITLE10=Four Tops - Seven Rooms Of Gloom
TTITLE11=Aretha Franklin - (Sweet Sweet Baby) Since You've Been Gone
TTITLE12=Young Holt Trio  - Wack Wack
TTITLE13=Solomon Burke - Got To Get You Off My Mind
TTITLE14=Martha And The Vandellas - You've Been In Love Too Long
TTITLE15=James Carr - Pouring Water On A Drowning Man
TTITLE16=Fontella Bass - Rescue Me
TTITLE17=Joe Tex - Show Me
TTITLE18=Gladys Knight And The Pips - Friendship Train
TTITLE19=Knight Bros. - Temptation 'Bout To Get Me
TTITLE20=Clarence Carter - Snatching It Back
TTITLE21=Lou Rawls - Dead End Street Monologue Dead End Street
EXTD=
EXTT0=
EXTT1=
EXTT2=
EXTT3=
EXTT4=
EXTT5=
EXTT6=
EXTT7=
EXTT8=
EXTT9=
EXTT10=
EXTT11=
EXTT12=
EXTT13=
EXTT14=
EXTT15=
EXTT16=
EXTT17=
EXTT18=
EXTT19=
EXTT20=
EXTT21=
PLAYORDER=
